<?xml version="1.0" encoding="UTF-8"?><svg id="Calque_2" xmlns="http://www.w3.org/2000/svg" viewBox="0 0 272.89 206.16"><g id="Calque_1-2"><path d="m69.65,206.16h-.26c-.46-1.26-1.7-.89-2.58-1.17-14.31-4.6-28.05-10.51-41.19-17.79-8.19-4.54-15.98-9.69-23.67-15.01-.64-.44-.84-1.06-.95-1.8-.48-3.15-.47-6.33-.63-9.5-.59-11.82-.48-23.63.65-35.42.99-10.32,2.78-20.51,5.21-30.58,6.69-27.73,18.75-53.04,34.58-76.66.45-.68.99-1.21,1.77-1.53,2.32-.96,4.62-1.96,6.95-2.92C64.72,7.55,80.42,2.97,96.63.13c.88-.15,1.2.17,1.53.81,2.13,4.15,4.29,8.29,6.09,12.6.34.81.81,1.06,1.63.93,1.61-.26,3.22-.52,4.84-.7,5.79-.65,11.59-1.27,17.41-1.45,8.03-.25,16.07-.24,24.09.52,4.79.46,9.58.84,14.32,1.67.65.11,1.1-.04,1.36-.71,1.76-4.52,4.18-8.73,6.27-13.1.27-.57.59-.81,1.23-.67,4.39.93,8.82,1.7,13.2,2.72,14.16,3.31,27.84,8.05,41.12,13.94.77.34,1.27.91,1.72,1.58,7.24,10.72,13.72,21.87,19.26,33.56,9.35,19.7,15.83,40.27,19.1,61.85.86,5.71,1.65,11.44,1.96,17.2.48,8.93.31,17.89.26,26.84-.02,3.26-.38,6.52-.34,9.77.04,3.05-1.38,4.81-3.85,6.53-19.69,13.69-40.83,24.37-63.82,31.34-.46.14-.98.19-1.09.8h-.53c-.02-.68-.54-1.08-.9-1.57-4.96-6.66-9.18-13.78-13.18-21.05-.53-.97-.3-1.29.71-1.64,7.43-2.6,14.42-6.14,21.23-10.07.87-.5.65-.81-.01-1.28-1.3-.91-2.64-1.79-3.83-2.83-.89-.77-1.52-.9-2.68-.36-11.65,5.37-23.76,9.31-36.38,11.71-9.08,1.73-18.23,2.76-27.47,2.99-12.31.3-24.5-.86-36.57-3.29-11.19-2.25-22.04-5.61-32.38-10.41-2.78-1.29-4.88-1.55-7.03.78-.75.82-2.51,1.23-2.43,2.11.08.87,1.74,1.27,2.74,1.82,6.18,3.41,12.51,6.5,19.16,8.91.83.3,1.15.65.63,1.53-1.97,3.34-3.86,6.72-5.84,10.05-2.59,4.36-5.45,8.54-8.51,12.58Zm-3.48-92.09c-.26,5.17,1.96,10.93,4.33,14.78,8.11,13.2,25.34,15.67,36.41,5.19,10.67-10.1,11.54-28.93,1.77-39.9-9.24-10.38-22.94-10.82-32.4-3.14-7.01,5.7-10.15,13.32-10.11,23.07Zm139.98-4.02c.09-3.1-1.59-8.48-4.83-13.4-8.91-13.5-27.42-14.6-37.86-2.25-9.15,10.83-8.89,27.64.58,38.27,8.83,9.91,23.8,10.58,33.34,1.45,6.04-5.78,8.73-12.98,8.77-24.07Z"/><path d="m272.89,155.35c-.4-1.82-.17-3.66-.17-5.49,0-2.14-.13-4.29.17-6.42v11.91Z"/></g></svg>