<?xml version="1.0" encoding="UTF-8"?><svg id="Calque_2" xmlns="http://www.w3.org/2000/svg" viewBox="0 0 405.3 407.17"><g id="Calque_1-2"><path d="m202.73,109.81c55.75,0,111.49,0,167.24,0q4.46,0,4.47-4.33c0-8.62.03-17.24,0-25.85-.05-11.95-6.17-18.36-18.04-18.5-13.85-.16-27.71.05-41.56-.11-3.12-.04-2.84,1.91-3.13,3.76-.97,6.03-4.24,10.25-10.06,12.15-5.97,1.94-11.45.86-16.02-3.61-2.77-2.71-4.18-6.06-4.18-9.98,0-16.03-.1-32.07.02-48.1.06-8.6,5.68-14.5,13.99-15.17,8.11-.66,14.64,4.56,16.24,12.92.74,3.9.46,7.83.5,11.75.06,6.62.02,6.56,6.79,6.57,13.64.02,27.27-.02,40.91.22,8.43.14,16.38,2.44,23.55,6.96,13.79,8.69,20.48,21.56,21.78,37.52.1,1.19.08,2.4.08,3.6,0,93.06.02,186.11-.02,279.17,0,15.35-5.44,28.37-17.55,38.14-8.92,7.19-19.33,10.26-30.72,10.26-63.93,0-127.85.01-191.78.02-38.84,0-77.67,0-116.51-.02-28.55-.01-48.68-20.04-48.69-48.6-.04-92.95-.04-185.89,0-278.84.01-28.01,19.19-47.64,47.22-48.25,14.18-.31,28.36-.18,42.54-.11,2.47.01,3.4-.53,3.37-3.23-.04-5.33-.57-10.7.62-15.98C95.38,5.08,101.03.2,107.76,0c7.42-.21,13.63,3.98,15.54,10.58.36,1.24.53,2.57.53,3.86.04,16.14.14,32.29,0,48.43-.07,8.33-5.82,14.25-13.94,14.88-8.17.63-15.01-4.58-16.16-12.88-.46-3.3-1.75-3.9-4.77-3.87-12.87.16-25.74.03-38.62.1-2.39.01-4.83.16-7.14.68-7.36,1.67-11.89,7.06-12.2,15.4-.37,10.13-.1,20.29-.18,30.43-.01,1.8.78,2.29,2.37,2.19.98-.06,1.96,0,2.94,0,55.53,0,111.06,0,166.58,0Zm-.05,25.18c-56.06,0-112.12.02-168.18-.06-2.75,0-3.73.52-3.72,3.55.09,72.97.06,145.93.08,218.9,0,12.61,6.32,18.96,18.95,18.96,101.87.02,203.74.01,305.6.03,2.42,0,4.81-.23,7.13-.84,7.84-2.06,11.89-8.22,11.89-18.07.01-72.86-.01-145.71.08-218.57,0-3.15-.82-3.97-3.97-3.97-55.95.1-111.9.07-167.85.07Z"/><path d="m202.69,31.59c16.46,0,32.92.08,49.39-.07,2.95-.03,3.67.84,3.61,3.68-.17,7.74-.1,15.48.05,23.22.04,2.22-.73,2.71-2.8,2.7-33.47-.06-66.94-.05-100.41,0-2.17,0-3.06-.46-3.01-2.87.17-7.85.23-15.7.06-23.54-.06-2.74.98-3.17,3.39-3.15,16.57.09,33.14.05,49.71.04Z"/><path d="m151.23,317.29c1.23-4.99,2.74-11.23,4.31-17.45,1.79-7.08,3.55-14.16,5.49-21.19.77-2.78.15-4.7-2.11-6.56-8.34-6.86-16.55-13.86-24.79-20.83-1.66-1.41-3.32-2.84-4.82-4.42-2.9-3.04-3.68-6.67-2.13-10.58,1.51-3.8,4.46-5.73,8.58-5.99,12.51-.79,25.02-1.74,37.54-2.39,3.26-.17,5.12-1.21,6.36-4.36,4.38-11.15,9.04-22.19,13.57-33.28,1.46-3.58,3.44-6.62,7.52-7.5,5.33-1.16,9.33.96,11.46,6.22,4.54,11.21,9.13,22.39,13.36,33.72,1.57,4.22,3.94,5.77,8.42,5.98,11.65.54,23.27,1.59,34.9,2.55,4.44.36,7.93,2.25,9.37,6.86,1.49,4.78-.02,8.39-3.85,11.49-9.24,7.47-18.28,15.19-27.56,22.62-3.16,2.53-4.05,5.25-3.05,9.13,2.92,11.28,5.58,22.63,8.43,33.93,1.2,4.77.61,8.96-3.62,11.94-4.03,2.84-8.06,1.89-11.92-.54-10.23-6.45-20.5-12.85-30.65-19.43-2.94-1.91-5.38-2.01-8.38-.08-9.63,6.19-19.39,12.16-29.1,18.21-2.42,1.51-4.89,2.82-7.89,2.79-5.53-.06-9.48-3.98-9.45-10.81Z"/></g></svg>