<?xml version="1.0" encoding="UTF-8"?><svg id="Calque_2" xmlns="http://www.w3.org/2000/svg" viewBox="0 0 472.67 480.35"><g id="Calque_1-2"><path d="m236.32,480.35c-72.56,0-145.12,0-217.68,0-12.48,0-18.62-6.08-18.62-18.57-.02-60.87-.02-121.75,0-182.62,0-12.55,6.1-18.62,18.56-18.62,40.99,0,81.98-.09,122.97.11,4.66.02,5.84-1.19,5.73-5.78-.32-13.6-.17-27.21-.09-40.81.06-11.38,6.14-17.37,17.46-17.37,47.79,0,95.58,0,143.38,0,11.31,0,17.42,5.99,17.45,17.38.07,24.24.12,48.49-.07,72.73-.03,4.09,1.03,5.25,5.19,5.23,41.34-.16,82.68-.1,124.01-.09,11.72,0,18.02,6.25,18.03,18.11.04,50.76.04,101.51,0,152.27,0,11.79-6.38,18.02-18.12,18.03-72.73,0-145.47,0-218.2,0Zm57.63-141.7c0-35.24-.06-70.47.09-105.71.02-3.82-.83-4.98-4.85-4.96-35.24.17-70.47.17-105.71,0-4-.02-4.85,1.13-4.85,4.96.12,70.3.12,140.6,0,210.9,0,4,.88,5.25,5.1,5.23,35.06-.18,70.12-.18,105.19,0,4.21.02,5.13-1.22,5.11-5.23-.15-35.06-.09-70.12-.09-105.19Zm-261.98,31.69c0,24.58.04,49.16-.05,73.74-.01,3.19.16,5,4.31,4.98,35.56-.17,71.12-.15,106.69-.02,3.56.01,4.32-1.2,4.31-4.48-.09-49.33-.1-98.67.02-148,0-3.62-.93-4.72-4.64-4.7-35.39.13-70.78.14-106.16,0-3.8-.02-4.57,1.24-4.55,4.75.14,24.58.07,49.16.07,73.74Zm408.74,15.73c0-19.17-.09-38.35.08-57.52.04-3.88-.72-5.35-5.05-5.32-35.03.19-70.07.18-105.11.01-4.11-.02-5.23,1.07-5.21,5.2.16,38.52.14,77.04.02,115.56-.01,3.74.74,5.07,4.83,5.05,35.21-.17,70.42-.17,105.63,0,3.95.02,4.95-1.05,4.91-4.94-.2-19.35-.09-38.7-.09-58.04Z"/><path d="m252.03,306.5c0,10.29.04,20.58-.01,30.87-.05,9.62-6.71,16.39-15.9,16.31-8.91-.08-15.42-6.85-15.46-16.22-.05-13.95-.05-27.91.01-41.86.01-2.73.08-4.43-3.69-5.22-8.37-1.74-13.11-9.41-11.97-17.66,1.07-7.73,7.74-13.17,16.29-13.23,5.06-.04,10.12-.08,15.18.01,8.89.16,15.44,6.68,15.53,15.6.1,10.46.02,20.93.03,31.4Z"/><path d="m184.94,134.86c1.23-4.99,2.74-11.23,4.31-17.45,1.79-7.08,3.55-14.16,5.49-21.19.77-2.78.15-4.7-2.11-6.56-8.34-6.86-16.55-13.86-24.79-20.83-1.66-1.41-3.32-2.84-4.82-4.42-2.9-3.04-3.68-6.67-2.13-10.58,1.51-3.8,4.46-5.73,8.58-5.99,12.51-.79,25.02-1.74,37.54-2.39,3.26-.17,5.12-1.21,6.36-4.36,4.38-11.15,9.04-22.19,13.57-33.28,1.46-3.58,3.44-6.62,7.52-7.5,5.33-1.16,9.33.96,11.46,6.22,4.54,11.21,9.13,22.39,13.36,33.72,1.57,4.22,3.94,5.77,8.42,5.98,11.65.54,23.27,1.59,34.9,2.55,4.44.36,7.93,2.25,9.37,6.86,1.49,4.78-.02,8.39-3.85,11.49-9.24,7.47-18.28,15.19-27.56,22.62-3.16,2.53-4.05,5.25-3.05,9.13,2.92,11.28,5.58,22.63,8.43,33.93,1.2,4.77.61,8.96-3.62,11.94-4.03,2.84-8.06,1.89-11.92-.54-10.23-6.45-20.5-12.85-30.65-19.43-2.94-1.91-5.38-2.01-8.38-.08-9.63,6.19-19.39,12.16-29.1,18.21-2.42,1.51-4.89,2.82-7.89,2.79-5.53-.06-9.48-3.98-9.45-10.81Z"/></g></svg>