<?xml version="1.0" encoding="UTF-8"?><svg id="Calque_2" xmlns="http://www.w3.org/2000/svg" viewBox="0 0 136.63 137.6"><defs><style>.cls-1{fill:#fff;}</style></defs><g id="Calque_1-2"><path class="cls-1" d="m68.63,137.6c-22.28,0-43.96-10.48-57.1-29.98C1.21,92.29-2.34,73.77,1.52,55.47c3.83-18.18,14.54-33.97,30.14-44.48C39.47,5.73,49.24,2.1,60.72.2c5.05-.83,9.89.95,12.95,4.78,3.09,3.87,3.76,9.08,1.79,13.92-5.85,14.38-4.32,30.43,4.09,42.93h0c8.41,12.49,22.69,19.94,38.2,19.94h.04c4.83,0,9.13,2.32,11.52,6.21,2.5,4.07,2.59,9.08.23,13.76-4.74,9.42-11.98,17.58-20.91,23.59-12.32,8.29-26.27,12.27-39.99,12.27ZM49.99,26.7c-2.07.92-3.96,1.96-5.67,3.1-10.68,7.19-18,17.97-20.61,30.34-2.58,12.25-.23,24.61,6.63,34.8,14.24,21.15,43.67,26.34,65.61,11.57,1.8-1.21,3.5-2.57,5.09-4.06-16.39-4-30.81-13.84-40.31-27.96h0c-9.49-14.09-13.18-31.12-10.75-47.79Z"/><path class="cls-1" d="m125.28,67.85c-5.21,0-9.9-3.61-11.06-8.91-1.26-5.72-3.58-11.13-6.89-16.06-3.71-5.5-8.4-10.05-13.96-13.52-5.31-3.32-6.93-10.31-3.61-15.63,3.32-5.31,10.31-6.93,15.63-3.61,8.27,5.17,15.26,11.93,20.76,20.09,4.92,7.31,8.36,15.34,10.23,23.86,1.34,6.12-2.53,12.16-8.65,13.51-.82.18-1.63.27-2.44.27Z"/></g></svg>